<?xml version="1.0" standalone="no"?>
<!DOCTYPE svg PUBLIC "-//W3C//DTD SVG 20010904//EN"
 "http://www.w3.org/TR/2001/REC-SVG-20010904/DTD/svg10.dtd">
<svg version="1.0" xmlns="http://www.w3.org/2000/svg"
 width="449.000000pt" height="447.000000pt" viewBox="0 0 449.000000 447.000000"
 preserveAspectRatio="xMidYMid meet">

<g transform="translate(0.000000,447.000000) scale(0.100000,-0.100000)"
fill="#063E8D" stroke="none">
<path d="M2130 4449 c-272 -28 -504 -98 -760 -230 -182 -94 -213 -119 -83 -69
246 97 511 144 798 143 353 -1 651 -71 970 -227 224 -110 395 -232 583 -418
188 -186 308 -352 426 -589 242 -485 297 -1014 161 -1545 -32 -123 -102 -320
-146 -406 -11 -21 -18 -38 -15 -38 12 0 129 193 186 305 440 869 221 1957
-518 2576 -452 378 -1026 557 -1602 498z"/>
<path d="M653 3858 c-322 -330 -523 -714 -609 -1168 -32 -166 -44 -500 -25
-671 49 -425 219 -831 488 -1167 294 -367 729 -650 1179 -767 244 -64 550 -89
794 -66 524 50 1014 278 1383 644 82 81 194 207 184 207 -3 0 -46 -31 -96 -68
-239 -180 -534 -318 -826 -387 -339 -80 -702 -81 -1040 -3 -818 189 -1480 841
-1684 1656 -53 212 -66 316 -65 552 0 292 33 494 124 755 46 132 161 363 238
479 85 128 84 126 79 126 -2 0 -58 -55 -124 -122z"/>
<path d="M2175 3864 c-683 -74 -1237 -577 -1365 -1241 -11 -60 -24 -172 -27
-249 l-6 -141 68 -5 c53 -3 71 -8 82 -24 7 -10 32 -48 56 -84 32 -49 48 -66
68 -68 36 -4 57 27 118 178 76 187 123 241 178 205 36 -24 56 -78 107 -288 25
-103 51 -197 57 -209 l12 -22 8 22 c11 30 34 246 64 612 54 646 77 803 128
858 48 51 96 13 121 -97 29 -129 42 -293 81 -1036 26 -495 40 -693 55 -805 5
-36 10 -72 10 -79 0 -10 3 -12 10 -5 15 15 45 306 75 709 27 376 50 621 66
725 21 140 61 209 113 196 69 -17 88 -119 131 -696 20 -267 40 -425 63 -492
44 -132 75 -40 107 327 8 94 20 195 26 225 27 133 95 195 165 151 49 -30 80
-107 109 -271 29 -161 55 -233 81 -228 32 6 55 54 89 185 18 73 38 140 44 150
20 39 61 67 96 67 55 0 99 -50 131 -148 36 -111 53 -144 75 -151 36 -12 57 5
80 63 41 104 95 153 154 138 34 -9 104 -73 111 -103 8 -32 33 -43 93 -43 l50
0 7 58 c8 68 -9 297 -32 402 -70 334 -271 662 -537 876 -197 157 -427 265
-673 314 -97 20 -359 33 -449 24z"/>
<path d="M1757 3264 c-12 -20 -37 -254 -72 -664 -40 -480 -51 -580 -72 -673
-16 -73 -52 -127 -85 -127 -30 0 -72 49 -96 112 -20 55 -71 256 -92 371 -7 31
-16 57 -21 57 -11 0 -48 -73 -83 -165 -97 -257 -206 -282 -339 -79 -28 43 -37
49 -70 52 l-37 3 6 -43 c71 -505 399 -952 859 -1173 307 -148 668 -189 1005
-116 578 127 1042 590 1170 1170 29 129 33 121 -58 121 -89 0 -96 4 -130 82
-21 48 -52 68 -76 49 -7 -6 -21 -33 -31 -59 -49 -131 -143 -175 -226 -105 -36
31 -59 75 -88 170 -12 39 -29 79 -38 89 -16 15 -18 15 -34 -5 -9 -11 -29 -71
-43 -133 -30 -129 -66 -202 -115 -235 -41 -28 -66 -29 -107 -4 -49 30 -80 106
-109 271 -29 165 -40 203 -61 221 -34 28 -48 -31 -74 -301 -24 -255 -26 -267
-51 -347 -25 -77 -76 -128 -118 -118 -63 14 -112 112 -136 274 -8 53 -26 245
-40 426 -14 182 -30 363 -35 403 -6 40 -10 79 -10 85 0 7 -3 8 -10 1 -13 -13
-36 -216 -60 -529 -68 -910 -85 -1039 -144 -1094 -18 -17 -32 -22 -49 -17 -81
20 -103 184 -152 1116 -36 693 -58 946 -78 914z"/>
</g>
</svg>
